<svg width="420" height="400" viewBox="0 0 420 400" xmlns="http://www.w3.org/2000/svg">
  <rect width="420" height="400" fill="white"/>
  <path d="M 90 210 C 95 120 175 78 248 94 C 330 112 352 178 332 250 C 312 322 218 344 148 322 C 82 302 85 278 90 210 Z"
        fill="#e8eefc" fill-opacity="0.5" stroke="#1a1a1a" stroke-width="2"/>
  <polygon points="252,94 240,84 236,98" fill="#1a1a1a"/>
  <g stroke="#c0392b" stroke-width="2.2" stroke-linecap="round">
    <line x1="143" y1="173" x2="157" y2="187"/>
    <line x1="157" y1="173" x2="143" y2="187"/>
    <line x1="243" y1="233" x2="257" y2="247"/>
    <line x1="257" y1="233" x2="243" y2="247"/>
  </g>
  <g stroke="#888888" stroke-width="2.2" stroke-linecap="round">
    <line x1="328" y1="73" x2="342" y2="87"/>
    <line x1="342" y1="73" x2="328" y2="87"/>
  </g>
  <text x="112" y="162" font-family="serif" font-style="italic" font-size="18" fill="#c0392b">z&#8321;</text>
  <text x="262" y="258" font-family="serif" font-style="italic" font-size="18" fill="#c0392b">z&#8322;</text>
  <text x="348" y="68" font-family="serif" font-style="italic" font-size="18" fill="#888888">z&#8323;</text>
  <text x="96" y="300" font-family="serif" font-style="italic" font-size="18" fill="#1a1a1a">C</text>
  <text x="200" y="368" font-family="serif" font-size="14" fill="#777777">solo los polos interiores aportan</text>
</svg>
